<svg aria-hidden="true" style="position: absolute; width: 0; height: 0; overflow: hidden;" version="1.1" xmlns="http://www.w3.org/2000/svg" xmlns:xlink="http://www.w3.org/1999/xlink">
<defs>
<symbol id="icon-bonus" viewBox="0 0 32 32">
<path d="M32 8.093c0-1.085-0.432-2.127-1.198-2.895-0.768-0.766-1.81-1.198-2.895-1.198-5.703 0-18.11 0-23.814 0-1.085 0-2.127 0.432-2.895 1.198-0.766 0.768-1.198 1.81-1.198 2.895v14.884c0 1.085 0.432 2.127 1.198 2.895 0.768 0.767 1.81 1.198 2.895 1.198h23.814c1.085 0 2.127-0.432 2.895-1.198 0.767-0.768 1.198-1.81 1.198-2.895v-14.884zM29.767 8.093v14.884c0 0.494-0.197 0.966-0.545 1.316-0.35 0.348-0.822 0.545-1.316 0.545h-23.814c-0.494 0-0.966-0.196-1.316-0.545-0.348-0.35-0.545-0.822-0.545-1.316v-14.884c0-0.494 0.196-0.966 0.545-1.316 0.35-0.348 0.822-0.545 1.316-0.545h23.814c0.494 0 0.966 0.196 1.316 0.545 0.348 0.35 0.545 0.822 0.545 1.316z"></path>
<path d="M5.096 11.37c-1.155 1.578-0.695 3.891 1.162 5.132 0.756 0.506 1.936 0.769 3.094 0.854 1.532 0.11 2.996-0.052 2.996-0.052 0.32-0.036 0.609-0.207 0.792-0.472 0.185-0.263 0.246-0.595 0.168-0.908 0 0-0.344-1.381-0.982-2.73-0.485-1.021-1.153-2-1.92-2.512-1.81-1.21-4.184-0.848-5.311 0.688zM6.897 12.692c0.478-0.653 1.5-0.668 2.268-0.153 0.479 0.32 0.841 0.975 1.143 1.613 0.164 0.345 0.305 0.692 0.421 1.009-0.372 0.006-0.79-0.001-1.216-0.031-0.746-0.055-1.526-0.156-2.015-0.484-0.722-0.482-1.051-1.343-0.601-1.954z"></path>
<path d="M19.462 11.37c-1.127-1.536-3.501-1.898-5.311-0.688-0.766 0.512-1.435 1.491-1.92 2.512-0.639 1.349-0.982 2.73-0.982 2.73-0.077 0.313-0.016 0.644 0.168 0.908 0.183 0.265 0.472 0.436 0.792 0.472 0 0 1.465 0.162 2.996 0.052 1.158-0.085 2.338-0.348 3.094-0.854 1.857-1.241 2.317-3.554 1.162-5.132zM17.661 12.692c0.449 0.612 0.121 1.472-0.601 1.954-0.49 0.327-1.27 0.429-2.015 0.484-0.426 0.030-0.844 0.037-1.216 0.031 0.116-0.317 0.257-0.664 0.421-1.009 0.302-0.639 0.664-1.293 1.143-1.613 0.768-0.515 1.791-0.5 2.268 0.153z"></path>
<path d="M11.211 5.116v20.837c0 0.616 0.5 1.116 1.116 1.116s1.116-0.5 1.116-1.116v-20.837c0-0.616-0.5-1.116-1.116-1.116s-1.116 0.5-1.116 1.116z"></path>
<path d="M18.977 14.419h11.907c0.616 0 1.116-0.5 1.116-1.116s-0.5-1.116-1.116-1.116h-11.907c-0.616 0-1.116 0.5-1.116 1.116s0.5 1.116 1.116 1.116z"></path>
<path d="M1.116 14.419h4.465c0.616 0 1.116-0.5 1.116-1.116s-0.5-1.116-1.116-1.116h-4.465c-0.616 0-1.116 0.5-1.116 1.116s0.5 1.116 1.116 1.116z"></path>
<path d="M11.441 16.696l4.465 4.465c0.436 0.436 1.143 0.436 1.579 0 0.436-0.435 0.436-1.143 0-1.578l-4.465-4.465c-0.436-0.436-1.143-0.436-1.579 0-0.435 0.435-0.435 1.143 0 1.578z"></path>
<path d="M11.538 15.118l-4.465 4.465c-0.436 0.435-0.436 1.143 0 1.578 0.436 0.436 1.143 0.436 1.579 0l4.465-4.465c0.435-0.435 0.435-1.143 0-1.578-0.436-0.436-1.143-0.436-1.579 0z"></path>
</symbol>
<symbol id="icon-contact" viewBox="0 0 32 32">
<path stroke-linejoin="round" stroke-linecap="round" stroke-miterlimit="4" stroke-width="2.6667" d="M11.556 25.533h8.889M8.593 20.4h14.815M5.63 1.333h20.741c1.636 0 2.963 1.459 2.963 3.259v22.815c0 1.8-1.327 3.259-2.963 3.259h-20.741c-1.636 0-2.963-1.459-2.963-3.259v-22.815c0-1.8 1.327-3.259 2.963-3.259zM15.996 7.511c-1.037-1.143-2.765-1.45-4.064-0.404s-1.482 2.796-0.462 4.034c1.020 1.238 4.526 4.126 4.526 4.126s3.506-2.888 4.526-4.126c1.020-1.238 0.86-2.998-0.462-4.034s-3.028-0.739-4.064 0.404z"></path>
</symbol>
<symbol id="icon-wishlist" viewBox="0 0 32 32">
<path stroke-linejoin="round" stroke-linecap="round" stroke-miterlimit="4" stroke-width="2.6667" d="M21.481 4c4.696 0 7.852 4.47 7.852 8.64 0 8.445-13.096 15.36-13.333 15.36s-13.333-6.915-13.333-15.36c0-4.17 3.156-8.64 7.852-8.64 2.696 0 4.459 1.365 5.481 2.565 1.022-1.2 2.785-2.565 5.481-2.565z"></path>
</symbol>
<symbol id="icon-address" viewBox="0 0 32 32">
<path stroke-linejoin="round" stroke-linecap="round" stroke-miterlimit="4" stroke-width="2.6667" d="M5.733 19.353c-2.715 1.198-4.4 2.867-4.4 4.713 0 3.645 6.566 6.6 14.667 6.6s14.667-2.955 14.667-6.6c0-1.846-1.685-3.515-4.4-4.713M24.8 10.133c0 5.96-6.6 8.8-8.8 13.2-2.2-4.4-8.8-7.24-8.8-13.2 0-4.86 3.94-8.8 8.8-8.8s8.8 3.94 8.8 8.8zM17.467 10.133c0 0.81-0.657 1.467-1.467 1.467s-1.467-0.657-1.467-1.467c0-0.81 0.657-1.467 1.467-1.467s1.467 0.657 1.467 1.467z"></path>
</symbol>
<symbol id="icon-home" viewBox="0 0 32 32">
<path stroke-linejoin="round" stroke-linecap="round" stroke-miterlimit="4" stroke-width="2.6667" d="M12 28v-9.867c0-0.747 0-1.12 0.145-1.405 0.128-0.251 0.332-0.455 0.583-0.583 0.285-0.145 0.659-0.145 1.405-0.145h3.733c0.747 0 1.12 0 1.405 0.145 0.251 0.128 0.455 0.332 0.583 0.583 0.145 0.285 0.145 0.659 0.145 1.405v9.867M14.69 3.686l-9.043 7.034c-0.604 0.47-0.907 0.705-1.124 1-0.193 0.261-0.337 0.555-0.424 0.867-0.099 0.353-0.099 0.736-0.099 1.501v9.647c0 1.493 0 2.24 0.291 2.811 0.256 0.502 0.664 0.91 1.165 1.165 0.57 0.291 1.317 0.291 2.811 0.291h15.467c1.493 0 2.24 0 2.811-0.291 0.502-0.256 0.91-0.664 1.165-1.165 0.291-0.57 0.291-1.317 0.291-2.811v-9.647c0-0.766 0-1.149-0.099-1.501-0.087-0.312-0.231-0.606-0.424-0.867-0.218-0.294-0.52-0.529-1.125-1l-9.043-7.034c-0.468-0.364-0.703-0.546-0.961-0.617-0.228-0.062-0.469-0.062-0.697 0-0.259 0.070-0.493 0.252-0.961 0.617z"></path>
</symbol>
<symbol id="icon-password" viewBox="0 0 32 32">
<path stroke-linejoin="round" stroke-linecap="round" stroke-miterlimit="4" stroke-width="2.6667" d="M24.148 11.111c0-0.834-0.318-1.668-0.955-2.305s-1.47-0.955-2.305-0.955M20.889 20.889c5.4 0 9.778-4.378 9.778-9.778s-4.378-9.778-9.778-9.778c-5.4 0-9.778 4.378-9.778 9.778 0 0.446 0.030 0.885 0.088 1.315 0.095 0.707 0.143 1.061 0.111 1.285-0.033 0.233-0.076 0.359-0.191 0.564-0.11 0.197-0.305 0.392-0.694 0.781l-8.328 8.328c-0.282 0.282-0.423 0.423-0.524 0.587-0.089 0.146-0.155 0.305-0.195 0.471-0.045 0.188-0.045 0.387-0.045 0.785v2.831c0 0.913 0 1.369 0.178 1.718 0.156 0.307 0.406 0.556 0.712 0.712 0.349 0.178 0.805 0.178 1.718 0.178h3.911v-3.259h3.259v-3.259h3.259l2.573-2.573c0.389-0.389 0.583-0.583 0.781-0.694 0.206-0.115 0.331-0.157 0.564-0.191 0.224-0.032 0.578 0.016 1.285 0.111 0.43 0.058 0.869 0.088 1.315 0.088z"></path>
</symbol>
<symbol id="icon-order" viewBox="0 0 32 32">
<path d="M28 8h-4c0-2.122-0.843-4.157-2.343-5.657s-3.535-2.343-5.657-2.343-4.157 0.843-5.657 2.343c-1.5 1.5-2.343 3.535-2.343 5.657h-4c-1.061 0-2.078 0.421-2.828 1.172s-1.172 1.768-1.172 2.828v13.333c0.002 1.767 0.705 3.462 1.955 4.712s2.944 1.953 4.712 1.955h18.667c1.767-0.002 3.462-0.705 4.712-1.955s1.953-2.944 1.955-4.712v-13.333c0-1.061-0.421-2.078-1.172-2.828s-1.768-1.172-2.828-1.172zM16 2.667c1.415 0 2.771 0.562 3.771 1.562s1.562 2.357 1.562 3.771h-10.667c0-1.415 0.562-2.771 1.562-3.771s2.357-1.562 3.771-1.562zM29.333 25.333c0 1.061-0.421 2.078-1.172 2.828s-1.768 1.172-2.828 1.172h-18.667c-1.061 0-2.078-0.421-2.828-1.172s-1.172-1.768-1.172-2.828v-13.333c0-0.354 0.14-0.693 0.391-0.943s0.589-0.391 0.943-0.391h4v2.667c0 0.354 0.14 0.693 0.391 0.943s0.589 0.391 0.943 0.391c0.354 0 0.693-0.141 0.943-0.391s0.391-0.589 0.391-0.943v-2.667h10.667v2.667c0 0.354 0.141 0.693 0.391 0.943s0.589 0.391 0.943 0.391c0.354 0 0.693-0.141 0.943-0.391s0.391-0.589 0.391-0.943v-2.667h4c0.354 0 0.693 0.14 0.943 0.391s0.391 0.589 0.391 0.943v13.333z"></path>
</symbol>
</defs>
</svg>
