<svg width="37" height="42" viewBox="0 0 37 42" fill="none" xmlns="http://www.w3.org/2000/svg">
<g clip-path="url(#clip0_6006_24811)">
<path d="M104.276 0C98.4193 0 93.5066 2.01475 89.5378 6.04351C85.5689 10.0723 83.5844 15.0478 83.5844 20.97C83.5844 26.9326 85.5689 31.9285 89.5378 35.9573C93.5066 39.9861 98.4193 42 104.276 42C110.172 42 115.085 40.0062 119.015 36.0179C122.946 31.9488 124.911 26.9326 124.911 20.97C124.911 15.0478 122.946 10.0723 119.015 6.04351C115.124 2.01475 110.21 0 104.276 0ZM220.684 0C214.826 0 209.913 2.01475 205.946 6.04351C201.976 10.0723 199.992 15.0478 199.992 20.97C199.992 26.9326 201.976 31.9285 205.946 35.9573C209.913 39.9861 214.826 42 220.684 42C226.579 42 231.492 40.0062 235.422 36.0179C239.354 31.9488 241.319 26.9326 241.319 20.97C241.319 15.0478 239.354 10.0723 235.422 6.04351C231.531 2.01475 226.618 0 220.684 0ZM10.0967 0.604435V11.1198H22.144C22.7605 11.1198 23.2806 11.3611 23.7045 11.8446C24.1283 12.2877 24.3406 12.8721 24.3406 13.5973C24.3406 13.8793 24.3209 14.0605 24.2824 14.1411C24.2054 14.7051 23.9552 15.1684 23.5314 15.531C23.1075 15.8936 22.6449 16.0748 22.144 16.0748H10.0967V25.5026H23.3003C23.9552 25.5026 24.5141 25.7641 24.9765 26.2879C25.4389 26.7713 25.6697 27.3955 25.6697 28.161C25.6697 28.9265 25.4389 29.5719 24.9765 30.0956C24.5141 30.6193 23.9552 30.8811 23.3003 30.8811H10.0967V41.3955H23.5314C27.346 41.3955 30.5634 40.2479 33.1836 37.9515C35.7653 35.6553 37.0564 32.7943 37.0564 29.3699C37.0564 25.6232 35.5344 22.582 32.4903 20.2453C34.6482 18.0697 35.727 15.4503 35.727 12.3884C35.727 9.00425 34.4554 6.20442 31.9122 3.98861C29.3305 1.7325 26.1706 0.604435 22.4331 0.604435H10.0967ZM40.0042 0.604435V41.3955H50.9278V0.604435H40.0042ZM54.2804 0.604435V41.3955H82.8331V30.8811H65.2041V0.604435H54.2804ZM127.859 0.604435V41.3955H148.435C152.25 41.3955 155.467 40.2479 158.088 37.9515C160.669 35.6553 161.96 32.7943 161.96 29.3699C161.96 25.6232 160.438 22.582 157.394 20.2453C159.551 18.0697 160.63 15.4503 160.63 12.3884C160.63 9.00425 159.359 6.20442 156.815 3.98861C154.234 1.7325 151.075 0.604435 147.337 0.604435H127.859ZM164.907 0.604435V41.3955H175.832V29.6115H181.265L187.623 41.3955H199.819L192.131 27.1339C194.134 25.8044 195.695 24.0921 196.812 21.9971C197.97 19.9022 198.547 17.6062 198.547 15.1084C198.547 10.9588 197.103 7.51358 194.212 4.77403C191.361 1.99417 187.796 0.604435 183.519 0.604435H164.907ZM239.238 0.604435L254.959 41.3955H264.033L279.813 0.604435H268.425L259.523 24.8375L250.624 0.604435H239.238ZM104.276 10.9388C106.896 10.9388 109.093 11.9051 110.866 13.8389C112.677 15.813 113.582 18.1902 113.582 20.97C113.582 23.7498 112.677 26.1272 110.866 28.1012C109.093 30.035 106.896 31.0015 104.276 31.0015C101.656 31.0015 99.4406 30.0545 97.6295 28.161C95.857 26.2675 94.971 23.8709 94.971 20.97C94.971 18.1097 95.857 15.7324 97.6295 13.8389C99.4406 11.9051 101.656 10.9388 104.276 10.9388ZM220.684 10.9388C223.303 10.9388 225.5 11.9051 227.273 13.8389C229.084 15.813 229.99 18.1902 229.99 20.97C229.99 23.7498 229.084 26.1272 227.273 28.1012C225.5 30.035 223.303 31.0015 220.684 31.0015C218.062 31.0015 215.848 30.0545 214.036 28.161C212.263 26.2675 211.377 23.8709 211.377 20.97C211.377 18.1097 212.263 15.7324 214.036 13.8389C215.848 11.9051 218.062 10.9388 220.684 10.9388ZM138.782 11.1198H147.048C147.665 11.1198 148.185 11.3612 148.608 11.8446C149.032 12.2878 149.245 12.8721 149.245 13.5973C149.245 13.8793 149.225 14.0606 149.187 14.1411C149.109 14.7052 148.859 15.1684 148.435 15.531C148.011 15.8936 147.549 16.0748 147.048 16.0748H138.782V11.1198ZM175.832 11.1198H183.519C184.598 11.1198 185.484 11.5026 186.177 12.2681C186.871 12.9932 187.218 13.9401 187.218 15.1084C187.218 16.2768 186.871 17.243 186.177 18.0085C185.484 18.774 184.598 19.1568 183.519 19.1568H175.832V11.1198ZM138.782 25.5026H148.203C148.858 25.5026 149.417 25.7641 149.88 26.2881C150.342 26.7715 150.574 27.3957 150.574 28.161C150.574 28.9265 150.342 29.5719 149.88 30.0956C149.417 30.6193 148.858 30.8811 148.203 30.8811H138.782V25.5026Z" fill="white"/>
<path d="M2.16039 40.5C1.54787 40.5 1.03467 40.2523 0.620802 39.7567C0.206934 39.2562 0 38.6392 0 37.9055C0 37.371 0.111744 36.8974 0.335233 36.4843C0.550447 36.0713 0.844293 35.7579 1.21677 35.5442L1.58305 36.7248C1.3968 36.8414 1.25195 37.0043 1.14849 37.2131C1.04088 37.4171 0.987075 37.6479 0.987075 37.9055C0.987075 38.2845 1.09882 38.6027 1.32231 38.8603C1.54166 39.1128 1.82101 39.2393 2.16039 39.2393C2.49562 39.2393 2.77706 39.1128 3.00468 38.8603C3.22818 38.6027 3.33992 38.2845 3.33992 37.9055C3.33992 37.6479 3.28819 37.4171 3.18471 37.2131C3.0771 37.0043 2.93019 36.8414 2.74395 36.7248L3.11023 35.5442C3.47856 35.7579 3.77447 36.0713 3.99796 36.4843C4.21731 36.9022 4.32698 37.3759 4.32698 37.9055C4.32698 38.6488 4.12005 39.2659 3.70618 39.7567C3.28819 40.2523 2.77292 40.5 2.16039 40.5ZM2.16039 35.2671C1.54787 35.2671 1.03467 35.0194 0.620802 34.5238C0.206934 34.0233 0 33.4063 0 32.6726C0 31.9341 0.206934 31.3195 0.620802 30.8287C1.03467 30.3331 1.54787 30.0854 2.16039 30.0854C2.77292 30.0854 3.28819 30.3331 3.70618 30.8287C4.12005 31.3147 4.32698 31.9293 4.32698 32.6726C4.32698 33.416 4.12005 34.033 3.70618 34.5238C3.28819 35.0194 2.77292 35.2671 2.16039 35.2671ZM3.33992 32.6726C3.33992 32.2984 3.22818 31.9827 3.00468 31.7251C2.77292 31.4677 2.49149 31.3388 2.16039 31.3388C1.83343 31.3388 1.55615 31.4677 1.32852 31.7251C1.10089 31.9778 0.987075 32.2936 0.987075 32.6726C0.987075 33.0516 1.09882 33.3698 1.32231 33.6274C1.54166 33.88 1.82101 34.0064 2.16039 34.0064C2.49562 34.0064 2.77706 33.88 3.00468 33.6274C3.22818 33.3698 3.33992 33.0516 3.33992 32.6726ZM1.01191 26.208L1.22298 27.4033C1.13607 27.4277 1.06571 27.4933 1.01191 27.6C0.953969 27.707 0.924999 27.8333 0.924999 27.9791C0.924999 28.12 0.953969 28.2415 1.01191 28.3436C1.06571 28.4406 1.134 28.4892 1.21677 28.4892C1.3161 28.4892 1.40094 28.4042 1.4713 28.2342C1.52097 28.1077 1.58098 27.9013 1.65134 27.6147C1.68445 27.4883 1.701 27.4228 1.701 27.418C1.79206 27.0535 1.91828 26.7425 2.07968 26.485C2.27835 26.1547 2.57841 25.9893 2.97985 25.9893C3.38958 25.9893 3.71654 26.1619 3.96072 26.5069C4.20491 26.8519 4.327 27.2964 4.327 27.8407C4.327 28.3412 4.2256 28.776 4.0228 29.1451C3.82 29.5096 3.55099 29.7428 3.21576 29.8449L2.99848 28.6205C3.11436 28.5864 3.20955 28.499 3.28405 28.3581C3.35855 28.2123 3.39579 28.0375 3.39579 27.8333C3.39579 27.6536 3.36682 27.503 3.30887 27.3815C3.24679 27.2599 3.16816 27.1993 3.07298 27.1993C2.9902 27.1993 2.91777 27.2625 2.85569 27.3888C2.79361 27.5102 2.72739 27.707 2.65704 27.9791C2.65289 27.9936 2.64874 28.0107 2.64459 28.03C2.64046 28.0495 2.63632 28.0665 2.63221 28.0812C2.53702 28.4406 2.43562 28.7371 2.32801 28.9703C2.10866 29.4319 1.76516 29.6748 1.29748 29.6991C0.912584 29.6991 0.600114 29.5436 0.360072 29.2327C0.120028 28.9218 5.02392e-06 28.5111 5.02392e-06 28.001C5.02392e-06 27.5491 0.0951946 27.1604 0.285574 26.8348C0.480094 26.4946 0.722202 26.2858 1.01191 26.208ZM4.25871 24.3351V25.5229H0.0682929V24.3351L2.4708 22.7389L0.0682929 21.1502V19.9622H4.25871V21.1502H1.96173L3.82414 22.3454V23.1397L1.96173 24.3351H4.25871ZM0.0682929 19.3937V15.6913H1.01812V18.1839H1.67616V16.1068H2.61979V18.1839H3.31508V15.6549H4.25871V19.3937H0.0682929ZM0.0682929 15.3488V11.2456H1.01812V12.6959H4.25871V13.9057H1.01812V15.3488H0.0682929ZM4.25871 9.61304V10.8229H0.0682929V9.61304H4.25871ZM2.16039 9.11744C1.54787 9.11744 1.03467 8.86963 0.620802 8.37405C0.206934 7.8736 0 7.25655 0 6.52287C0 5.9884 0.111744 5.51468 0.335233 5.10169C0.550447 4.68868 0.844293 4.3753 1.21677 4.16152L1.58305 5.34221C1.3968 5.45881 1.25195 5.62157 1.14849 5.83049C1.04088 6.03456 0.987075 6.26535 0.987075 6.52287C0.987075 6.90184 1.09882 7.22009 1.32231 7.47761C1.54166 7.73027 1.82101 7.85658 2.16039 7.85658C2.49562 7.85658 2.77706 7.73027 3.00468 7.47761C3.22818 7.22009 3.33992 6.90184 3.33992 6.52287C3.33992 6.26535 3.28819 6.03456 3.18471 5.83049C3.0771 5.62157 2.93019 5.45881 2.74395 5.34221L3.11023 4.16152C3.47856 4.3753 3.77447 4.68868 3.99796 5.10169C4.21731 5.51953 4.32698 5.99326 4.32698 6.52287C4.32698 7.26625 4.12005 7.88331 3.70618 8.37405C3.28819 8.86963 2.77292 9.11744 2.16039 9.11744ZM1.01191 0.218642L1.22298 1.4139C1.13607 1.4382 1.06571 1.5038 1.01191 1.61067C0.953969 1.71757 0.924999 1.8439 0.924999 1.98967C0.924999 2.13056 0.953969 2.25204 1.01191 2.35406C1.06571 2.45123 1.134 2.49983 1.21677 2.49983C1.3161 2.49983 1.40094 2.4148 1.4713 2.24475C1.52097 2.11842 1.58098 1.91191 1.65134 1.62526C1.68445 1.49892 1.701 1.43333 1.701 1.42847C1.79206 1.06407 1.91828 0.753103 2.07968 0.495589C2.27835 0.165195 2.57841 0 2.97985 0C3.38958 0 3.71654 0.172489 3.96072 0.517464C4.20491 0.862433 4.327 1.307 4.327 1.85117C4.327 2.35162 4.2256 2.78648 4.0228 3.15575C3.82 3.52016 3.55099 3.75339 3.21576 3.85541L2.99848 2.63101C3.11436 2.59702 3.20955 2.50955 3.28405 2.36864C3.35855 2.22288 3.39579 2.04795 3.39579 1.84388C3.39579 1.66412 3.36682 1.5135 3.30887 1.39203C3.24679 1.27056 3.16816 1.20983 3.07298 1.20983C2.9902 1.20983 2.91777 1.27299 2.85569 1.39932C2.79361 1.52079 2.72739 1.71757 2.65704 1.98967C2.65289 2.00423 2.64874 2.02123 2.64459 2.04066C2.64046 2.06009 2.63632 2.07709 2.63221 2.09167C2.53702 2.45121 2.43562 2.74761 2.32801 2.98082C2.10866 3.44241 1.76516 3.68534 1.29748 3.70965C0.912584 3.70965 0.600114 3.55416 0.360072 3.24319C0.120028 2.93225 5.02392e-06 2.52168 5.02392e-06 2.0115C5.02392e-06 1.55964 0.0951946 1.17094 0.285574 0.845406C0.480094 0.505294 0.722202 0.296382 1.01191 0.218642Z" fill="white"/>
</g>
<defs>
<clipPath id="clip0_6006_24811">
<rect width="37" height="42" fill="white"/>
</clipPath>
</defs>
</svg>
