<svg width="128" height="128" viewBox="0 0 128 128" fill="none" xmlns="http://www.w3.org/2000/svg">
<mask id="mask0_674_3364" style="mask-type:alpha" maskUnits="userSpaceOnUse" x="0" y="0" width="128" height="128">
<circle cx="64" cy="64" r="64" fill="#D9D9D9"/>
</mask>
<g mask="url(#mask0_674_3364)">
<rect width="128" height="128" fill="white"/>
<g clip-path="url(#clip0_674_3364)">
<path d="M51.0001 32V48.2405H70.662C71.6682 48.2405 72.5169 48.6133 73.2086 49.3599C73.9005 50.0444 74.2468 50.9469 74.2468 52.067C74.2468 52.5025 74.2148 52.7824 74.1521 52.9068C74.0263 53.778 73.6179 54.4934 72.9261 55.0534C72.2344 55.6134 71.4795 55.8933 70.662 55.8933H51V70.454H72.549C73.6181 70.454 74.5302 70.8582 75.2849 71.6671C76.0396 72.4138 76.4164 73.3778 76.4164 74.56C76.4164 75.7423 76.0396 76.7389 75.2849 77.5478C74.5302 78.3567 73.6181 78.7608 72.549 78.7608H51V95H72.9261C79.152 95 84.4029 93.2277 88.6792 89.681C92.8927 86.1344 95 81.7159 95 76.4271C95 70.6404 92.5159 65.9434 87.5479 62.3344C91.0695 58.9745 92.8304 54.9288 92.8304 50.1998C92.8304 44.9732 90.7549 40.6489 86.6042 37.2267C82.3909 33.7422 77.2339 32 71.1337 32H51.0001Z" fill="#D63D44"/>
<path d="M37.9943 96C36.8618 96 35.913 95.6084 35.1478 94.8253C34.3826 94.0343 34 93.0593 34 91.8999C34 91.0553 34.2066 90.3067 34.6198 89.6541C35.0177 89.0014 35.561 88.5062 36.2497 88.1684L36.9268 90.0341C36.5825 90.2185 36.3147 90.4756 36.1234 90.8059C35.9244 91.1283 35.825 91.493 35.825 91.8999C35.825 92.4988 36.0316 93.0016 36.4448 93.4086C36.8503 93.8079 37.3668 94.0075 37.9943 94.0075C38.6141 94.0075 39.1344 93.8079 39.5552 93.4086C39.9684 93.0016 40.175 92.4988 40.175 91.8999C40.175 91.493 40.0794 91.1283 39.8881 90.8059C39.6891 90.4756 39.4175 90.2185 39.0732 90.0341L39.7504 88.1684C40.4314 88.5062 40.9785 89.0014 41.3917 89.6541C41.7972 90.3144 42 91.063 42 91.8999C42 93.0747 41.6174 94.0497 40.8522 94.8253C40.0794 95.6084 39.1267 96 37.9943 96ZM37.9943 87.7308C36.8618 87.7308 35.913 87.3392 35.1478 86.556C34.3826 85.7651 34 84.7901 34 83.6307C34 82.4636 34.3826 81.4924 35.1478 80.7169C35.913 79.9338 36.8618 79.5421 37.9943 79.5421C39.1267 79.5421 40.0794 79.9338 40.8522 80.7169C41.6174 81.4846 42 82.456 42 83.6307C42 84.8054 41.6174 85.7805 40.8522 86.556C40.0794 87.3392 39.1267 87.7308 37.9943 87.7308ZM40.175 83.6307C40.175 83.0395 39.9684 82.5405 39.5552 82.1335C39.1267 81.7265 38.6064 81.5231 37.9943 81.5231C37.3898 81.5231 36.8771 81.7265 36.4562 82.1335C36.0354 82.5328 35.825 83.0318 35.825 83.6307C35.825 84.2296 36.0316 84.7324 36.4448 85.1394C36.8503 85.5387 37.3668 85.7383 37.9943 85.7383C38.6141 85.7383 39.1344 85.5387 39.5552 85.1394C39.9684 84.7324 40.175 84.2296 40.175 83.6307ZM35.8709 73.4151L36.2611 75.304C36.1004 75.3423 35.9704 75.446 35.8709 75.6149C35.7638 75.7838 35.7102 75.9834 35.7102 76.2138C35.7102 76.4364 35.7638 76.6284 35.8709 76.7896C35.9704 76.9432 36.0966 77.0199 36.2497 77.0199C36.4333 77.0199 36.5902 76.8855 36.7202 76.6168C36.8121 76.4172 36.923 76.0909 37.0531 75.6379C37.1143 75.4383 37.1449 75.3346 37.1449 75.327C37.3133 74.7511 37.5466 74.2598 37.8451 73.8528C38.2123 73.3306 38.7671 73.0697 39.5093 73.0697C40.2669 73.0697 40.8714 73.3421 41.3228 73.8873C41.7743 74.4325 42 75.1349 42 75.9949C42 76.7858 41.8125 77.4729 41.4376 78.0564C41.0627 78.6323 40.5653 79.0009 39.9455 79.1621L39.5438 77.2273C39.758 77.1735 39.934 77.0353 40.0717 76.8127C40.2095 76.5823 40.2783 76.3058 40.2783 75.9834C40.2783 75.6993 40.2248 75.4614 40.1177 75.2693C40.0029 75.0774 39.8575 74.9814 39.6815 74.9814C39.5285 74.9814 39.3946 75.0812 39.2798 75.2808C39.165 75.4729 39.0426 75.7838 38.9125 76.2138C38.9048 76.2368 38.8972 76.2636 38.8895 76.2943C38.8818 76.325 38.8742 76.352 38.8666 76.375C38.6906 76.9432 38.5031 77.4115 38.3042 77.78C37.8986 78.5094 37.2635 78.8934 36.3989 78.9317C35.6872 78.9317 35.1095 78.686 34.6657 78.1947C34.2219 77.7033 34 77.0544 34 76.2483C34 75.5342 34.176 74.92 34.528 74.4055C34.8876 73.8681 35.3353 73.538 35.8709 73.4151ZM41.8737 70.4553V72.3326H34.1263V70.4553L38.5682 67.9331L34.1263 65.4224V63.545H41.8737V65.4224H37.627L41.0703 67.3112V68.5665L37.627 70.4553H41.8737ZM34.1263 62.6467V56.796H35.8824V60.7349H37.099V57.4526H38.8436V60.7349H40.1291V56.7385H41.8737V62.6467H34.1263ZM34.1263 56.2548V49.7707H35.8824V52.0626H41.8737V53.9744H35.8824V56.2548H34.1263ZM41.8737 47.1909V49.1027H34.1263V47.1909H41.8737ZM37.9943 46.4078C36.8618 46.4078 35.913 46.0162 35.1478 45.233C34.3826 44.4422 34 43.4671 34 42.3077C34 41.4631 34.2066 40.7145 34.6198 40.0619C35.0177 39.4093 35.561 38.914 36.2497 38.5762L36.9268 40.442C36.5825 40.6262 36.3147 40.8835 36.1234 41.2136C35.9244 41.5361 35.825 41.9008 35.825 42.3077C35.825 42.9066 36.0316 43.4095 36.4448 43.8164C36.8503 44.2157 37.3668 44.4153 37.9943 44.4153C38.6141 44.4153 39.1344 44.2157 39.5552 43.8164C39.9684 43.4095 40.175 42.9066 40.175 42.3077C40.175 41.9008 40.0794 41.5361 39.8881 41.2136C39.6891 40.8835 39.4175 40.6262 39.0732 40.442L39.7504 38.5762C40.4314 38.914 40.9785 39.4093 41.3917 40.0619C41.7972 40.7222 42 41.4708 42 42.3077C42 43.4824 41.6174 44.4576 40.8522 45.233C40.0794 46.0162 39.1267 46.4078 37.9943 46.4078ZM35.8709 32.3455L36.2611 34.2343C36.1004 34.2727 35.9704 34.3764 35.8709 34.5453C35.7638 34.7142 35.7102 34.9138 35.7102 35.1441C35.7102 35.3668 35.7638 35.5588 35.8709 35.72C35.9704 35.8735 36.0966 35.9503 36.2497 35.9503C36.4333 35.9503 36.5902 35.816 36.7202 35.5472C36.8121 35.3476 36.923 35.0213 37.0531 34.5683C37.1143 34.3687 37.1449 34.265 37.1449 34.2573C37.3133 33.6815 37.5466 33.1901 37.8451 32.7832C38.2123 32.261 38.7671 32 39.5093 32C40.2669 32 40.8714 32.2726 41.3228 32.8177C41.7743 33.3629 42 34.0654 42 34.9253C42 35.7162 41.8125 36.4033 41.4376 36.9869C41.0627 37.5627 40.5653 37.9312 39.9455 38.0925L39.5438 36.1576C39.758 36.1039 39.934 35.9657 40.0717 35.743C40.2095 35.5127 40.2783 35.2363 40.2783 34.9138C40.2783 34.6297 40.2248 34.3917 40.1177 34.1997C40.0029 34.0078 39.8575 33.9118 39.6815 33.9118C39.5285 33.9118 39.3946 34.0116 39.2798 34.2113C39.165 34.4032 39.0426 34.7142 38.9125 35.1441C38.9048 35.1672 38.8972 35.194 38.8895 35.2247C38.8818 35.2555 38.8742 35.2823 38.8666 35.3053C38.6906 35.8735 38.5031 36.3419 38.3042 36.7104C37.8986 37.4398 37.2635 37.8237 36.3989 37.8621C35.6872 37.8621 35.1095 37.6164 34.6657 37.1251C34.2219 36.6336 34 35.9848 34 35.1787C34 34.4646 34.176 33.8504 34.528 33.336C34.8876 32.7985 35.3353 32.4684 35.8709 32.3455Z" fill="#D63D44"/>
</g>
</g>
<defs>
<clipPath id="clip0_674_3364">
<rect width="61" height="64" fill="white" transform="translate(34 32)"/>
</clipPath>
</defs>
</svg>
