 <svg
              width="121"
              height="114"
              viewBox="0 0 121 114"
              fill="none"
              xmlns="http://www.w3.org/2000/svg"
            >
              <g clip-path="url(#clip0_1000_12131)">
                <path
                  d="M57.7746 81.9697C56.9878 81.9191 56.3926 81.9394 55.8076 81.8383C54.3046 81.5755 53.5884 80.5243 53.9516 79.0688C54.113 78.4118 54.3853 77.775 54.6879 77.1787C55.9387 74.763 57.1794 72.3473 58.5008 69.9619C61.527 64.5038 63.8772 58.793 65.1886 52.6679C65.3096 52.0917 65.4306 51.5055 65.4912 50.9193C65.5618 50.333 65.0776 49.9995 64.4926 50.2522C62.8585 50.9597 61.2445 51.7279 59.6003 52.395C57.472 53.2541 55.3234 54.0526 53.0538 54.467C52.721 54.5277 52.3881 54.6287 52.0552 54.6692C50.9557 54.7905 49.8461 54.4367 50.0176 54.093C50.3606 53.4259 51.1171 53.4462 51.7324 53.2642C55.1419 52.2029 58.3798 50.7171 61.6682 49.3425C62.687 48.918 63.6856 48.4126 64.7447 48.1397C66.5907 47.6444 67.5691 48.4833 67.4178 50.3836C67.2564 52.3343 66.863 54.2548 66.3385 56.1449C64.8759 61.33 62.7475 66.2221 60.1047 70.9019C58.8539 73.1256 57.6031 75.3391 56.3624 77.5729C56.0799 78.0884 55.8479 78.6443 55.6159 79.1901C55.394 79.7359 55.6866 80.211 56.2817 80.2716C57.5627 80.3929 58.8236 80.2918 60.0643 79.9482C63.1712 79.089 66.278 78.2501 69.3949 77.4011C69.8084 77.2899 70.2119 77.1585 70.6255 77.0877C70.7264 77.0675 70.8777 77.209 70.9785 77.3101C71.0189 77.3404 70.9987 77.5122 70.9483 77.5426C70.5448 77.8559 70.1615 78.2097 69.7177 78.4421C65.8947 80.3828 61.8195 81.4845 57.7544 82L57.7746 81.9697Z"
                  fill="#757575"
                />
                <path
                  d="M88.8974 56.9744C89.1652 57.3641 88.8478 57.6239 88.6395 57.8238C87.9153 58.5133 87.1713 59.2027 86.3777 59.8023C83.6398 61.8907 80.6837 63.6294 77.6383 65.2182C76.9638 65.5679 76.2793 65.8577 75.5155 65.9576C73.6009 66.2074 72.7478 65.3481 73.2339 63.5095C73.5612 62.3004 74.0374 61.1213 74.5036 59.9522C75.2873 58.0037 76.1106 56.0751 76.9241 54.1366C78.6799 49.9198 79.7512 45.5131 80.4456 41.0165C80.6341 39.7775 80.6143 38.4984 80.6539 37.2394C80.6539 37.0395 80.5052 36.6998 80.3564 36.6498C80.1679 36.5899 79.8604 36.6998 79.6818 36.8397C78.3029 37.9189 76.9439 39.038 75.5651 40.1272C74.4441 41.0165 73.1843 41.686 71.8848 42.2756C71.5078 42.4454 71.1011 42.5554 70.6944 42.6053C70.4762 42.6353 70.2282 42.4854 70 42.4155C70.0992 42.2156 70.1488 41.9158 70.3174 41.8159C72.2121 40.7168 73.9184 39.3678 75.5948 37.9788C76.4975 37.2294 77.3705 36.45 78.2732 35.7006C78.8485 35.2209 79.4239 34.7213 80.0588 34.3216C81.1003 33.6721 82.0229 34.0218 82.3998 35.2309C82.5685 35.7805 82.5883 36.38 82.6181 36.9696C82.7768 40.0273 82.1518 42.995 81.5368 45.9628C80.5746 50.5993 78.7791 54.946 76.9142 59.2627C76.319 60.6516 75.7337 62.0406 75.1683 63.4395C75.1187 63.5594 75.198 63.7793 75.2972 63.8892C75.3766 63.9791 75.6047 64.0391 75.7139 63.9891C76.6364 63.5994 77.5788 63.2397 78.4517 62.76C81.6658 60.9614 84.8501 59.1128 88.0443 57.2942C88.3022 57.1443 88.5204 56.8245 88.8974 56.9844V56.9744Z"
                  fill="#757575"
                />
                <path
                  d="M103.954 43.9229C104.128 44.4939 103.78 44.8779 103.432 45.2224C101.449 47.2012 98.9337 48.2644 96.2447 48.9141C94.7929 49.2686 93.9238 48.5007 93.8523 47.0732C93.8114 46.2463 93.9239 45.4292 94.1386 44.6121C95.0792 41.0877 96.0709 37.5732 96.8991 34.0193C97.8602 29.8846 98.5043 25.7105 97.4103 21.4773C96.8889 21.2804 96.6333 21.6545 96.3572 21.9302C94.4964 23.781 92.5436 25.5333 90.3863 27.0493C89.415 27.7286 88.3926 28.3488 87.3599 28.9395C86.7056 29.3136 85.9899 29.3234 86.0001 29.0478C86.0206 28.5359 86.4909 28.4079 86.8078 28.1618C89.7422 25.8483 92.472 23.3281 95.0996 20.6996C95.5802 20.2271 96.0403 19.725 96.5821 19.3312C97.4205 18.7208 98.5349 18.9768 98.9644 19.912C99.2711 20.5815 99.4347 21.3297 99.5778 22.0581C100.416 26.2126 99.8948 30.3177 98.903 34.3737C97.9726 38.154 96.8786 41.9048 95.8562 45.6654C95.7744 45.9805 95.6926 46.3053 95.6415 46.6302C95.5802 46.9748 95.9482 47.2996 96.2754 47.2012C98.4327 46.5908 100.416 45.5965 102.4 44.6022C102.89 44.3561 103.238 43.7457 103.944 43.9131L103.954 43.9229Z"
                  fill="#757575"
                />
                <path
                  d="M49.9899 73.3625C49.2145 74.031 48.2679 74.0605 47.3817 73.9524C45.7 73.7459 44.0384 73.4116 42.3667 73.1265C42.2861 73.1167 42.1955 73.097 42.1149 73.0675C39.8894 72.3794 39.2852 71.1111 40.2519 69.0859C40.7555 68.0339 41.3597 67.0311 41.9438 66.0284C43.0817 64.0621 43.8068 61.9484 44.3707 59.7757C44.562 59.0285 44.2196 58.7041 43.4039 58.8515C42.2358 59.0482 41.0676 59.2939 39.8995 59.4611C38.8119 59.6184 37.7042 59.697 36.6065 59.4906C36.395 59.4512 36.1433 59.2546 36.0426 59.058C35.8915 58.7729 36.1735 58.6353 36.4051 58.5861C38.973 58.065 41.5409 57.4948 44.129 57.0622C45.7403 56.7968 46.2639 57.367 46.1632 59.0285C46.0222 61.2209 45.2267 63.2363 44.3002 65.1927C43.696 66.4609 42.9105 67.6604 42.2056 68.8794C41.9941 69.2432 41.7524 69.5873 41.5712 69.951C41.269 70.5606 41.4604 71.1603 42.0948 71.3864C42.8098 71.642 43.5449 71.8485 44.2901 71.9959C45.6194 72.2614 46.9688 72.458 48.2981 72.7136C48.8721 72.8218 49.4663 72.9102 50 73.3526L49.9899 73.3625Z"
                  fill="#757575"
                />
                <path
                  d="M35 72.2615C34.9128 72.7703 34.6704 73.0196 34.3117 72.9988C31.6264 72.8223 28.9411 72.5938 26.3333 71.7837C26.1006 71.711 25.8777 71.5968 25.6644 71.4722C25.0052 71.0775 24.7919 70.3506 25.2281 69.6859C25.5965 69.1251 26.0715 68.6267 26.5175 68.1282C27.4772 67.0481 28.4757 66.02 29.3967 64.9088C29.8232 64.4103 30.2498 63.8495 30.2401 63.0083C29.3773 62.676 28.5145 63.5483 27.6614 63.0706C27.4869 62.6033 27.865 62.5098 28.117 62.3852C28.9992 61.9282 29.8814 61.4609 30.7927 61.087C31.607 60.7547 32.305 61.4194 32.1305 62.3125C31.9269 63.351 31.5294 64.3064 30.9575 65.1684C30.1044 66.4562 29.0962 67.6089 28.0395 68.7097C27.642 69.1251 27.0894 69.4159 26.8956 70.1948C28.088 71.1814 29.61 70.9529 30.9672 71.3372C32.2953 71.711 33.6525 71.9707 35 72.2718V72.2615Z"
                  fill="#757575"
                />
                <path
                  d="M20.3524 47.9782C20.3923 46.9351 19.8328 46.1527 19.5031 45.3101C18.8036 43.4846 18.2941 41.639 18.354 39.643C18.414 37.7473 18.7837 35.9318 19.603 34.2567C22.3208 28.6899 26.5773 24.8382 32.4525 22.782C37.4584 21.0267 42.4943 20.9565 47.6101 22.1802C50.158 22.7921 52.626 23.5945 54.994 24.7279C58.681 26.5033 62.0283 28.72 64.5462 31.9598C65.3356 31.9297 65.5054 31.2777 65.8651 30.8564C66.2248 30.4352 66.2648 29.9838 66.015 29.4522C65.1457 27.5866 64.806 25.5705 64.5762 23.5644C63.9267 17.9574 66.035 13.4639 70.4414 10.0636C73.2091 7.92712 76.3166 6.44263 79.7937 5.82075C80.5331 5.69035 81.2925 5.61011 82.0519 5.56999C83.4307 5.48975 84.7597 5.67029 85.8288 6.87393C86.4483 6.22196 86.9878 5.61011 87.5774 5.04841C96.8897 -3.96885 111.148 -0.0871145 115.804 10.2241C117.393 13.7347 117.743 17.3556 116.544 21.0769C116.334 21.7188 116.234 22.4109 115.934 23.0127C115.165 24.5474 115.185 25.7009 116.724 26.8945C118.042 27.9276 118.712 29.6027 119.291 31.1975C120.041 33.2738 120.55 35.4002 120.68 37.6169C120.75 38.8807 121 40.1345 121 41.3983C120.97 51.6393 117.783 60.6264 110.459 67.9687C108.41 70.0148 106.072 71.6598 103.534 73.0139C102.495 73.5656 101.396 74.0771 100.217 74.1774C98.978 74.2878 98.8881 74.7692 98.9281 75.8625C99.1379 81.3892 97.819 86.5849 95.4609 91.5399C92.3634 98.0396 87.5773 102.794 81.0127 105.803C76.976 107.649 72.7795 108.842 68.3631 108.983C63.607 109.133 58.9708 108.311 54.6043 106.284C49.6684 103.998 45.202 101.019 41.3152 97.187C37.2386 93.1749 34.1811 88.4405 31.6132 83.3652C31.4633 83.0643 31.3134 82.7534 31.1835 82.4524C30.0245 79.7342 29.8346 80.336 27.8163 80.978C24.8487 81.9208 21.8811 82.8537 18.8136 83.4354C14.5971 84.2378 10.6203 83.7163 6.8834 81.5096C2.9766 79.2026 0.778399 75.7221 0.188882 71.2987C-0.740358 64.2675 1.78757 58.5702 7.14319 54.0365C9.77104 51.8198 12.8086 50.4256 16.0259 49.3423C17.4547 48.8609 18.9036 48.4396 20.3724 47.9882L20.3524 47.9782ZM88.7464 10.7356L88.6964 10.6955C88.4766 11.9994 88.4766 11.9994 87.4375 11.8289C85.509 11.528 83.5806 11.528 81.6522 11.7687C81.3824 11.7988 81.0027 12.0696 80.8529 11.5079C81.4724 11.0867 82.1618 10.7958 82.9112 10.7757C83.8104 10.7456 84.2801 10.2642 84.5798 9.49185C84.7297 9.10066 84.9595 8.73957 85.1194 8.34839C85.4391 7.62621 85.1793 6.97423 84.4399 6.75357C83.5506 6.48275 82.6414 6.4326 81.7022 6.50281C76.6863 6.91405 72.4697 9.09063 69.0225 12.6414C66.3847 15.3596 65.1657 18.7398 65.5054 22.6015C65.6653 24.3769 65.985 26.1121 66.3947 27.8373C66.7844 29.4522 66.7744 29.4522 68.483 28.8303C68.7128 28.7501 68.9726 28.6397 69.2024 28.6698C69.4122 28.6999 69.622 28.8905 69.7819 29.051C69.9118 29.1814 69.8219 29.3519 69.6221 29.4422C67.7236 30.2546 66.6445 31.8695 65.6753 33.5646C64.756 35.1795 63.8768 36.8145 62.9775 38.4394C62.5778 39.1515 62.2381 39.9038 61.5187 40.5257C61.2789 39.8938 61.3588 39.3923 61.5587 38.9309C62.1682 37.5366 62.6777 36.0822 63.4571 34.7984C64.1765 33.6148 63.9167 32.7722 63.0974 31.8695C61.8384 30.4853 60.4496 29.2817 58.9008 28.2385C55.1539 25.7009 51.0273 24.0358 46.6209 23.103C43.2336 22.3908 39.8065 22.1301 36.3493 22.8422C30.7738 23.9957 26.1077 26.6136 22.6505 31.2075C20.9019 33.5345 19.633 36.0822 19.4032 39.0512C19.2533 40.947 19.573 42.7524 20.2924 44.4977C20.7121 45.5107 21.1217 46.5238 21.4815 47.567C21.7512 48.3493 21.4415 48.9211 20.6821 49.1518C20.0426 49.3524 19.3832 49.4928 18.7337 49.6733C15.6462 50.546 12.6287 51.6092 9.93091 53.3846C3.67603 57.4769 0.578563 63.2143 1.16808 70.747C1.5078 75.0601 3.62607 78.4102 7.373 80.6369C10.7003 82.6129 14.2774 83.1947 18.0742 82.5227C20.6421 82.0713 23.1801 81.4795 25.6381 80.5667C26.6672 80.1856 27.7064 79.8446 28.7555 79.5336C30.1144 79.1324 30.7639 79.3832 31.5232 80.5768C31.7031 80.8576 31.863 81.1585 31.9829 81.4795C32.6623 83.2248 33.6215 84.8096 34.5607 86.4144C37.978 92.2521 42.3144 97.2672 47.9398 101.059C52.4361 104.098 57.1722 106.525 62.6677 107.358C70.7611 108.571 78.0751 106.585 84.7597 102.192C91.9338 97.4678 95.5908 90.3664 97.3593 82.1515C98.2386 78.0391 97.839 73.9066 97.5492 69.7741C97.3793 67.3367 97.0996 64.9094 96.8698 62.4821L96.8198 62.5322C96.9797 62.7027 97.2195 62.8432 97.2994 63.0538C97.799 64.4079 98.1487 65.7921 98.2986 67.2264C98.3685 67.8984 98.4585 68.5705 98.5983 69.2224C98.7282 69.8243 99.1079 70.0148 99.7174 69.8744C101.556 69.4632 103.205 68.6507 104.733 67.5674C106.802 66.103 108.72 64.4681 110.579 62.7529C110.748 62.5924 110.888 62.1109 111.308 62.452C109.539 64.8793 106.762 67.3969 104.084 69.062C102.785 69.8644 101.406 70.4662 99.8873 70.7069C98.8281 70.8774 98.7782 70.9677 98.8082 71.9908C98.8182 72.4823 98.7282 73.0139 99.2378 73.4251C101.176 73.1945 102.885 72.2917 104.533 71.2787C108.92 68.5604 112.357 64.8793 114.955 60.4459C119.781 52.1809 120.59 43.2439 118.952 33.9859C118.532 31.6388 117.543 29.4823 116.134 27.5364C115.894 27.2054 115.574 26.9145 115.265 26.6437C115.165 26.5534 114.855 26.5033 114.815 26.5534C114.425 27.0951 114.016 27.6367 113.726 28.2385C113.516 28.6698 113.946 28.9908 114.196 29.3218C115.914 31.699 116.913 34.347 117.293 37.4062C116.664 36.9449 116.674 36.4132 116.514 35.9318C115.834 33.9358 115.075 31.9698 113.946 30.1744C113.536 29.5224 112.977 29.2917 112.177 29.2817C114.146 26.413 114.965 23.1331 115.864 19.9033C116.204 18.6997 116.484 17.3857 116.364 16.162C116.124 13.6344 115.415 11.1769 114.056 8.99033C107.391 -1.75215 91.5641 -1.60169 85.6389 9.4116C85.4591 9.75264 85.1094 10.0937 85.4791 10.5852C86.0086 10.7055 86.6281 10.7356 87.1277 10.9864C87.7872 11.3274 88.2168 10.7256 88.7664 10.7356H88.7464Z"
                  fill="#757575"
                />
                <path
                  d="M22.761 97.9843C22.1471 97.7091 21.6794 98.0334 21.2019 98.0138C20.7147 98.004 20.2177 97.9941 19.75 97.886C18.0545 97.5027 17.2067 96.7164 17.041 95.4288C16.8169 93.7185 17.5185 92.2442 18.9509 91.4677C20.1398 90.8288 21.4358 90.475 22.7318 90.8878C23.5795 91.1532 24.096 90.9271 24.6904 90.4062C25.3043 89.8754 25.9864 89.4135 26.7952 89.1677C28.5199 88.6566 29.6308 89.325 30.1765 91.0156C30.537 92.1361 29.6113 93.1878 30.0303 94.151C30.4006 95.0061 31.4725 95.4288 31.8038 96.4412C32.7197 99.2522 30.2934 102.309 27.3409 101.975C25.3238 101.749 23.7842 100.815 23.0728 98.7903C22.9656 98.4954 22.8487 98.1907 22.7707 97.9843H22.761ZM20.5783 92.1459C19.6525 92.0771 19.0386 92.598 18.5124 93.2664C18.1422 93.748 18.035 94.3181 18.035 94.9078C18.035 95.704 18.454 96.4215 19.1946 96.6279C20.13 96.8933 21.0655 97.1292 22.0984 96.9326C23.3262 96.6967 23.4626 96.8638 23.9498 97.9548C24.1837 98.4757 24.3883 99.036 24.7196 99.4979C25.8012 100.972 27.6917 101.424 29.3482 100.658C31.4432 99.6847 31.8525 97.1194 30.157 95.5566C30.04 95.4484 29.8939 95.3501 29.7477 95.2813C28.9097 94.8783 28.7733 94.2296 29.0948 93.4237C29.3482 92.7946 29.4164 92.1459 29.3384 91.4775C29.1923 90.1998 28.2568 89.6297 27.068 90.0622C25.772 90.534 24.8268 91.4087 24.1739 92.6177C23.9011 93.1288 23.7159 93.6891 23.219 94.0429C23.1703 94.0822 23.0533 94.0429 22.9754 94.0232C22.9072 93.9937 22.8097 93.9249 22.8 93.8758C22.7902 93.6497 22.7707 93.404 22.8195 93.1779C23.1703 91.6446 23.0533 91.507 21.5137 91.6839C21.1142 91.7331 20.6952 91.7724 20.4808 92.2147L20.5685 92.1361L20.5783 92.1459Z"
                  fill="#757575"
                />
                <path
                  d="M12.6939 113.999C11.8964 114.02 10.8971 113.439 10.5224 112.14C10.2245 111.102 9.81138 110.447 8.78328 110.271C7.81283 110.105 7.18829 109.471 7.03455 108.381C6.8616 107.207 7.35163 106.355 8.19717 105.691C9.38861 104.746 10.6377 104.839 11.8484 105.556C12.5402 105.961 13.1263 106.179 13.8565 105.639C14.3273 105.286 14.9327 105.317 15.5092 105.431C16.7679 105.701 17.354 106.979 16.7775 108.194C16.6718 108.422 16.5565 108.682 16.3835 108.848C15.7782 109.45 15.7878 110.157 15.807 110.998C15.8647 112.878 14.8462 113.937 12.6939 113.999ZM12.7227 107.695C12.1558 107.415 12.521 106.677 11.9829 106.397C10.8875 105.826 9.8306 105.743 8.78328 106.449C8.20678 106.844 7.86088 107.415 7.97618 108.204C8.08187 108.91 8.56229 109.367 9.10036 109.388C10.4648 109.461 11.1181 110.198 11.2719 111.59C11.2719 111.673 11.3199 111.756 11.3487 111.839C11.7523 112.764 12.5402 113.137 13.5587 112.899C14.5483 112.67 15.2113 111.912 14.9807 110.873C14.7501 109.855 15.0191 109.212 15.6437 108.568C15.8166 108.391 15.9415 108.163 16.0665 107.934C16.422 107.269 16.0857 106.532 15.3746 106.335C14.8654 106.189 14.4042 106.304 14.0006 106.605C13.5394 106.947 13.1263 107.342 12.7131 107.695H12.7227Z"
                  fill="#757575"
                />
                <path
                  d="M12.9841 55C12.679 55.8848 11.8128 56.1362 11.1828 56.6088C9.35207 57.9762 7.83626 59.6252 6.69449 61.6161C4.78497 64.9241 4.40109 68.4232 5.51334 72.0932C6.51732 75.4214 8.79102 77.2715 12.0884 77.8446C13.7125 78.1261 15.3562 78.2568 17 78.4579L16.9409 78.3976C16.8425 78.7897 16.5374 78.8903 16.2027 78.9204C14.0176 79.1618 11.9014 78.84 9.83437 78.1462C7.56066 77.3821 6.03501 75.7733 5.10978 73.5713C3.30853 69.2779 3.75146 65.1453 6.06454 61.1636C7.59019 58.5494 9.73594 56.5987 12.3246 55.1307C12.5215 55.0201 12.8069 55.0704 13.0432 55.0503L13.0038 55H12.9841Z"
                  fill="#757575"
                />
                <path
                  d="M33.951 27.0099C33.8922 27.6615 33.2748 27.6812 32.8828 27.8589C31.2364 28.6289 29.6096 29.4484 28.1102 30.485C25.0036 32.6273 23.1907 35.5594 22.9457 39.3997C22.8085 41.542 23.3671 43.5165 24.4744 45.333C24.7684 45.8267 25.1212 46.2907 25.4446 46.7547C25.0134 47.1989 24.6704 46.962 24.3862 46.656C23.0339 45.2047 22.3773 43.4178 22.1127 41.5026C21.6227 37.8991 22.7497 34.7795 25.131 32.0942C26.1306 30.9687 27.2674 30.0111 28.6002 29.3101C29.8448 28.6586 31.0992 28.0267 32.3438 27.385C32.8632 27.1185 33.4022 26.9013 34 27.0494L33.9608 27L33.951 27.0099Z"
                  fill="#757575"
                />
                <path
                  d="M90.065 89.9901C89.9242 89.0953 90.4981 88.3796 90.8012 87.6042C91.7649 85.0791 92.8801 82.6037 93.4215 79.9593C94.0279 77.0068 94.6342 74.0542 94.017 71.0221C93.8221 70.0777 93.8654 69.0836 93.7897 68C94.0387 68.2187 94.2552 68.3082 94.2769 68.4374C94.5151 69.5807 94.7966 70.7239 94.9049 71.887C95.3055 76.0425 94.396 80.0389 93.0101 83.9657C92.4254 85.6358 91.6999 87.2662 90.9853 88.8965C90.8012 89.3141 90.693 89.8906 90 89.9503L90.065 90V89.9901Z"
                  fill="#757575"
                />
                <path
                  d="M73.9541 12C73.9908 12.5308 73.6051 12.7286 73.3204 12.9888C70.8042 15.289 69.8032 18.3699 69.7206 21.9295C69.7022 22.8767 69.7206 23.8239 69.7206 25C69.0685 24.209 68.9767 23.3555 69.0042 22.5853C69.1144 19.5981 69.5369 16.6837 71.3093 14.2898C72.0348 13.301 72.7235 12.2186 74 12.052L73.9633 12H73.9541Z"
                  fill="#757575"
                />
                <path
                  d="M89.0395 11C89.0593 10.7662 88.9901 10.474 89.1087 10.3182C91.045 7.68831 93.5346 5.83766 96.7848 5.0974C97.1701 5.00974 97.595 5.06818 98 5.05844L97.9605 5C97.8814 5.12662 97.832 5.36039 97.7333 5.37987C94.2755 6.14935 91.5884 8.06818 89.4248 10.776C89.3359 10.8831 89.1383 10.9026 89 10.961L89.0494 11H89.0395Z"
                  fill="#757575"
                />
                <path
                  d="M77.9507 10C77.1908 11.1875 76.1151 11.625 75 11.9375L75.0395 12C75.7105 10.575 76.7763 10.1375 78 10.075L77.9507 10Z"
                  fill="#757575"
                />
                <path
                  d="M35.0381 27.986C35.7429 27.2191 36.6571 27.2291 38 27C36.8 27.8267 35.9619 28.1354 35 27.9462L35.0381 27.996V27.986Z"
                  fill="#757575"
                />
                <path
                  d="M98.0566 4.97744C98.8717 3.44571 99.9019 4.20212 101 4.08866C100.592 5.20437 100.06 4.86398 99.6415 4.95853C99.1094 5.072 98.5434 4.92071 98 4.88289L98.0453 4.99635L98.0566 4.97744Z"
                  fill="#757575"
                />
                <path
                  d="M78.0599 10.3916C78.1199 10.1104 78.3297 10.01 78.5695 10C78.7094 10 78.8593 10.0803 78.9992 10.1205C78.9092 10.1908 78.8193 10.3113 78.7094 10.3213C78.4796 10.3514 78.2398 10.3213 78 10.3213L78.05 10.3815L78.0599 10.3916Z"
                  fill="#757575"
                />
                <path
                  d="M89.3283 91C89.3084 91.2419 89.2984 91.4839 89.2584 91.7258C89.2384 91.8226 89.1685 91.9032 89.1185 92C89.0785 91.7903 88.9686 91.5161 89.0086 91.371C89.0586 91.2097 89.2584 91.1774 89.3883 91.0806L89.3283 91Z"
                  fill="#757575"
                />
                <path
                  d="M13.9533 55C13.785 55.8727 13.4299 56.0182 13 55.9091L13.0374 56C13.1402 54.7818 13.5888 55.0364 14 55.1273L13.9439 55.0182L13.9533 55Z"
                  fill="#757575"
                />
                <path
                  d="M90.1132 91C90 90.5946 90 90.2162 91 90.045L90.8868 90C91.0755 90.4234 91.0566 90.7928 90 90.955L90.1132 91Z"
                  fill="#757575"
                />
                <path
                  d="M14.0472 55C14.1321 53.8421 14.6038 54.1053 15 54.1053L14.9434 54C14.8113 54.9474 14.3868 54.8772 14 54.8947L14.0566 55H14.0472Z"
                  fill="#757575"
                />
                <path
                  d="M74.0374 13C74.1589 11.8958 74.5514 11.8958 75 12.113L74.9626 12.0225C74.8131 13.0362 74.4299 13.0543 74 12.9095L74.0374 13Z"
                  fill="#757575"
                />
                <path
                  d="M17.06 79.1061C17.24 78.8961 17.02 79.0661 17 79.0461L17.06 79.1061Z"
                  fill="#757575"
                />
                <path
                  d="M97.11 62.04L97 62L97.06 62.08L97.11 62.04Z"
                  fill="#757575"
                />
                <path
                  d="M15.06 54.251C15.1199 54.1707 15.1898 54.0803 15.2498 54C15.2298 54.0502 15.2298 54.1205 15.1998 54.1305C15.1399 54.1606 15.06 54.1707 15 54.1807L15.06 54.241V54.251Z"
                  fill="#757575"
                />
                <path
                  d="M25.0032 96C25.7045 97.1084 26.2208 98.1807 27 99C25.2565 98.4337 24.9643 98 25.0032 96Z"
                  fill="#757575"
                />
                <path
                  d="M20.094 92.0899C20.3616 92.1685 20.6737 92.1685 20.8744 92.3371C21.1531 92.573 20.9078 92.8427 20.7183 93.0112C20.1051 93.573 19.6369 94.236 19.2578 95C18.8788 94.5169 18.9791 94.0674 19.1686 93.618C19.4251 93.0225 20.172 92.7416 20.1943 92L20.094 92.0899Z"
                  fill="#757575"
                />
                <path
                  d="M11 107.266C10.7807 107.499 10.5526 107.748 10.3158 107.981C10.2895 108.014 10.1842 107.997 10.1316 107.981C10.0702 107.956 10 107.889 10 107.84C10 107.482 10.4035 107.017 10.7368 107C10.807 107 10.886 107.158 11 107.274V107.266Z"
                  fill="#757575"
                />
              </g>
              <defs>
                <clipPath id="clip0_1000_12131">
                  <rect width="121" height="114" fill="white" />
                </clipPath>
              </defs>
            </svg>