<svg aria-hidden="true" style="position: absolute; width: 0; height: 0; overflow: hidden;" version="1.1" xmlns="http://www.w3.org/2000/svg" xmlns:xlink="http://www.w3.org/1999/xlink">
<defs>
<symbol id="icon-gpay" viewBox="0 0 81 32">
<path fill="#fff" style="fill: var(--color1, #fff)" d="M37.579 14.991v9.329h-3.019v-23.038h8.007c0.956-0.020 1.906 0.147 2.796 0.489s1.702 0.854 2.389 1.506c0.694 0.612 1.246 1.363 1.62 2.201s0.56 1.746 0.546 2.661c0.020 0.92-0.164 1.833-0.537 2.677s-0.929 1.599-1.629 2.212c-1.4 1.309-3.129 1.963-5.185 1.961l-4.988 0.002zM37.579 4.118v8.042h5.063c0.555 0.016 1.107-0.081 1.622-0.287s0.979-0.513 1.365-0.905c0.384-0.366 0.689-0.803 0.898-1.287s0.316-1.003 0.316-1.528c0-0.525-0.107-1.045-0.316-1.528s-0.514-0.921-0.898-1.287c-0.381-0.4-0.845-0.715-1.359-0.926s-1.070-0.312-1.628-0.296l-5.063 0.002z"></path>
<path fill="#fff" style="fill: var(--color1, #fff)" d="M56.863 8.96c2.206 0 3.947 0.579 5.224 1.738s1.914 2.747 1.913 4.765v9.627h-2.855v-2.168h-0.13c-1.236 1.785-2.88 2.678-4.931 2.678-1.751 0-3.216-0.51-4.395-1.53-0.566-0.468-1.018-1.055-1.324-1.716s-0.458-1.382-0.444-2.109c0-1.616 0.622-2.902 1.865-3.856s2.903-1.433 4.979-1.435c1.772 0 3.232 0.319 4.379 0.956v-0.67c0.003-0.495-0.105-0.985-0.319-1.434s-0.525-0.846-0.914-1.161c-0.789-0.7-1.818-1.082-2.881-1.069-1.667 0-2.986 0.691-3.958 2.073l-2.629-1.627c1.446-2.040 3.586-3.060 6.42-3.060zM53.002 20.308c-0.002 0.373 0.087 0.741 0.259 1.074s0.423 0.62 0.731 0.838c0.66 0.51 1.479 0.781 2.319 0.765 1.26-0.002 2.467-0.495 3.357-1.37 0.989-0.915 1.483-1.987 1.483-3.219-0.931-0.729-2.228-1.093-3.893-1.093-1.212 0-2.223 0.287-3.033 0.862-0.818 0.583-1.224 1.292-1.224 2.142z"></path>
<path fill="#fff" style="fill: var(--color1, #fff)" d="M80.64 8.96l-9.626 23.040h-2.976l3.572-8.062-6.33-14.978h3.134l4.575 11.488h0.063l4.45-11.488h3.139z"></path>
<path fill="#fff" style="fill: var(--color1, #fff)" d="M25.6 14.292c0.001-0.929-0.076-1.856-0.23-2.772h-12.57v5.25h7.2c-0.147 0.839-0.459 1.638-0.917 2.35s-1.051 1.322-1.745 1.793v3.408h4.297c2.516-2.372 3.966-5.88 3.966-10.028z"></path>
<path fill="#fff" style="fill: var(--color1, #fff)" d="M13.038 25.6c3.551 0 6.542-1.122 8.722-3.057l-4.242-3.166c-1.181 0.77-2.701 1.21-4.48 1.21-3.433 0-6.346-2.227-7.388-5.227h-4.37v3.263c1.095 2.097 2.775 3.86 4.851 5.093s4.468 1.885 6.907 1.885z"></path>
<path fill="#fff" style="fill: var(--color1, #fff)" d="M6.4 15.895c-0.611-1.593-0.611-3.318 0-4.91v-3.305h-4.846c-1.022 1.787-1.554 3.76-1.554 5.76s0.532 3.973 1.554 5.76l4.846-3.305z"></path>
<path fill="#fff" style="fill: var(--color1, #fff)" d="M12.991 5.013c1.869-0.029 3.675 0.653 5.028 1.899l3.741-3.614c-2.372-2.152-5.515-3.334-8.769-3.298-2.43 0-4.811 0.653-6.879 1.885s-3.741 2.995-4.832 5.092l4.353 3.263c1.038-3 3.939-5.227 7.358-5.227z"></path>
</symbol>
<symbol id="icon-24" viewBox="0 0 167 32">
<path fill="#fff" style="fill: var(--color1, #fff)" d="M0 0h13.945c3.466 0 6.186 0.823 8.185 2.443 2 1.646 3.013 4.063 3.013 7.303 0 3.054-0.933 5.471-2.8 7.25s-4.399 2.682-7.625 2.682h-9.065v12.322h-5.652v-32zM5.652 4.7v10.49h7.865c4.106 0 6.132-1.753 6.132-5.258 0-3.479-2.213-5.205-6.639-5.205h-7.359v-0.027z"></path>
<path fill="#fff" style="fill: var(--color1, #fff)" d="M41.143 9.245v4.725c-0.912-0.077-1.503-0.128-1.825-0.128-4.509 0-6.763 2.784-6.763 8.351v9.807h-5.126v-22.321h4.858v4.444c1.664-3.32 4.294-4.98 7.864-4.98l0.993 0.102z"></path>
<path fill="#fff" style="fill: var(--color1, #fff)" d="M50.286 0v5.021h-4.571v-5.021h4.571zM50.286 8.905v23.095h-4.571v-23.095h4.571z"></path>
<path fill="#fff" style="fill: var(--color1, #fff)" d="M52.571 9.143h5.654l6.030 17.534 5.788-17.534h5.385l-8.427 22.857h-5.842l-8.588-22.857z"></path>
<path fill="#fff" style="fill: var(--color1, #fff)" d="M78.714 16.465c0.526-4.898 3.893-7.322 10.074-7.322 2.867 0 5.182 0.519 6.891 1.583s2.551 2.721 2.551 4.947v10.959c0 0.618 0.079 1.039 0.237 1.262s0.473 0.346 0.947 0.346c0.368 0 0.736-0.025 1.157-0.074v3.364c-1.315 0.297-2.394 0.47-3.288 0.47-2.157 0-3.419-0.866-3.735-2.597-1.92 1.732-4.629 2.597-8.075 2.597-2.367 0-4.261-0.569-5.655-1.731s-2.104-2.721-2.104-4.725c0-0.619 0.079-1.187 0.21-1.707 0.158-0.52 0.316-0.989 0.526-1.385 0.184-0.396 0.5-0.742 0.947-1.088 0.421-0.346 0.789-0.618 1.078-0.841s0.737-0.421 1.394-0.618c0.631-0.198 1.105-0.346 1.42-0.445s0.842-0.198 1.631-0.322c0.763-0.099 1.289-0.198 1.525-0.223 0.263-0.049 0.789-0.099 1.578-0.198 1.815-0.223 3.051-0.421 3.709-0.569s1.105-0.396 1.342-0.693c0.21-0.223 0.315-0.742 0.315-1.558 0-2.177-1.578-3.265-4.734-3.265-1.657 0-2.867 0.297-3.656 0.891-0.763 0.594-1.262 1.583-1.473 2.968h-4.814v-0.025zM93.312 20.571c-0.395 0.198-0.842 0.371-1.342 0.52s-0.92 0.247-1.236 0.297c-0.315 0.049-0.789 0.099-1.473 0.198-0.657 0.074-1.105 0.148-1.315 0.173-0.631 0.074-1.105 0.173-1.473 0.223-0.368 0.074-0.789 0.198-1.315 0.346-0.526 0.173-0.921 0.371-1.21 0.618s-0.526 0.569-0.737 0.965c-0.21 0.396-0.315 0.89-0.315 1.435 0 1.039 0.368 1.831 1.079 2.375 0.736 0.569 1.736 0.841 3.051 0.841 2.262 0 3.998-0.569 5.208-1.707 0.684-0.643 1.026-1.88 1.026-3.735v-2.548h0.053z"></path>
<path fill="#fff" style="fill: var(--color1, #fff)" d="M114.286 9.105v3.656h-4.687v11.927c0 0.7 0.027 1.193 0.053 1.478s0.106 0.596 0.266 0.933c0.16 0.337 0.426 0.57 0.799 0.674 0.373 0.13 0.906 0.181 1.544 0.181 0.853 0 1.518-0.026 2.024-0.078v3.941c-1.012 0.104-2.184 0.182-3.462 0.182-0.905 0-1.704-0.078-2.37-0.208s-1.251-0.285-1.704-0.466c-0.453-0.181-0.826-0.467-1.119-0.908-0.293-0.415-0.532-0.778-0.692-1.063s-0.293-0.778-0.373-1.478c-0.080-0.7-0.106-1.245-0.106-1.608s0-1.011 0-1.919c0-0.104 0-0.208 0-0.285s0-0.156 0-0.259c0-0.104 0-0.208 0-0.285v-10.76h-3.888v-3.656h3.888v-6.819h5.139v6.819h4.687z"></path>
<path fill="#fff" style="fill: var(--color1, #fff)" d="M139.378 27.432v4.568h-20.521c0.025-1.416 0.203-2.725 0.558-3.9s0.736-2.19 1.192-3.018c0.431-0.828 1.091-1.683 1.978-2.538 0.862-0.855 1.649-1.576 2.359-2.137s1.674-1.282 2.892-2.137c0.076-0.053 0.507-0.347 1.268-0.881s1.218-0.855 1.395-0.988c0.178-0.134 0.558-0.454 1.167-0.962s0.989-0.908 1.192-1.202c0.178-0.294 0.431-0.721 0.761-1.229s0.558-1.042 0.66-1.549c0.101-0.534 0.177-1.095 0.177-1.683 0-1.656-0.431-2.965-1.319-3.9-0.862-0.962-2.055-1.416-3.551-1.416-0.862 0-1.598 0.134-2.232 0.427s-1.116 0.668-1.471 1.095c-0.355 0.454-0.659 1.042-0.888 1.736-0.229 0.721-0.381 1.389-0.457 2.003-0.076 0.641-0.126 1.362-0.152 2.217h-4.769v-0.801c0-3.419 0.913-6.117 2.739-8.12s4.287-3.018 7.356-3.018c2.917 0 5.276 0.855 7.052 2.591s2.663 4.033 2.663 6.891c0 1.149-0.178 2.244-0.507 3.259-0.355 1.015-0.71 1.843-1.090 2.484s-1.065 1.362-2.004 2.217-1.649 1.442-2.106 1.763c-0.456 0.321-1.293 0.935-2.536 1.816-3.576 2.431-5.733 4.568-6.443 6.384h14.636v0.027z"></path>
<path fill="#fff" style="fill: var(--color1, #fff)" d="M166.857 20.11v4.365h-4.099v7.525h-5.049l-0.054-7.525h-13.655v-5.114l13.79-19.361h4.968v20.137h4.099v-0.027zM157.736 20.11v-13.737l-9.42 13.737h9.42z"></path>
</symbol>
<symbol id="icon-visa" viewBox="0 0 103 32">
<path fill="#fff" style="fill: var(--color1, #fff)" d="M41.025 0.889l-5.47 28.444h8.748l5.474-28.444h-8.752z"></path>
<path fill="#fff" style="fill: var(--color1, #fff)" d="M30.037 0.895l-8.389 19.425-0.894-2.933c-1.654-3.534-6.351-8.61-11.865-11.808l7.671 23.754 9.063-0.014 13.489-28.43-9.074 0.006z"></path>
<path fill="#fff" style="fill: var(--color1, #fff)" d="M16.733 3.374c-0.487-1.864-1.897-2.419-3.647-2.485h-12.978l-0.108 0.609c10.1 2.44 16.783 8.321 19.556 15.391l-2.823-13.515z"></path>
<path fill="#fff" style="fill: var(--color1, #fff)" d="M66.588 7.005c2.714-0.041 4.681 0.53 6.208 1.121l0.749 0.339 1.122-6.346c-1.643-0.593-4.217-1.229-7.43-1.229-8.196 0-13.973 3.971-14.018 9.663-0.053 4.205 4.115 6.553 7.264 7.955 3.232 1.437 4.316 2.35 4.301 3.633-0.026 1.96-2.577 2.859-4.96 2.859-3.321 0-5.086-0.441-7.81-1.533l-1.069-0.468-1.167 6.553c1.941 0.819 5.523 1.523 9.241 1.56 8.719 0 14.384-3.924 14.444-10.006 0.036-3.327-2.176-5.866-6.97-7.949-2.901-1.359-4.676-2.262-4.659-3.633 0-1.217 1.506-2.518 4.753-2.518z"></path>
<path fill="#fff" style="fill: var(--color1, #fff)" d="M96.3 0.889h-6.503c-2.020 0-3.522 0.507-4.41 2.362l-12.498 26.082h8.839c0 0 1.442-3.507 1.769-4.275 0.968 0 9.556 0.012 10.779 0.012 0.251 0.993 1.026 4.263 1.026 4.263h7.809l-6.811-28.444zM85.919 19.233c0.693-1.634 3.353-7.954 3.353-7.954-0.045 0.078 0.686-1.646 1.121-2.717l0.567 2.454c0 0 1.613 6.795 1.95 8.217h-6.993z"></path>
</symbol>
<symbol id="icon-apple" viewBox="0 0 78 32">
<path fill="#fff" style="fill: var(--color1, #fff)" d="M14.168 4.126c-0.909 1.081-2.363 1.933-3.817 1.812-0.182-1.462 0.53-3.014 1.363-3.973 0.909-1.111 2.499-1.903 3.786-1.964 0.152 1.522-0.439 3.014-1.333 4.126zM15.485 6.226c-2.105-0.122-3.908 1.203-4.907 1.203-1.015 0-2.544-1.142-4.21-1.111-2.166 0.030-4.18 1.263-5.286 3.227-2.272 3.928-0.591 9.743 1.605 12.94 1.075 1.583 2.363 3.319 4.059 3.258 1.606-0.061 2.242-1.050 4.18-1.050 1.954 0 2.514 1.050 4.211 1.020 1.757-0.031 2.863-1.583 3.938-3.167 1.227-1.796 1.727-3.547 1.757-3.638-0.030-0.030-3.393-1.324-3.423-5.222-0.030-3.258 2.65-4.811 2.772-4.902-1.515-2.253-3.877-2.497-4.695-2.558zM27.648 1.812v23.734h3.665v-8.114h5.074c4.635 0 7.891-3.197 7.891-7.825s-3.196-7.794-7.77-7.794h-8.86zM31.313 4.917h4.226c3.181 0 4.998 1.705 4.998 4.704s-1.818 4.719-5.013 4.719h-4.211v-9.423zM50.972 25.728c2.302 0 4.438-1.172 5.407-3.030h0.076v2.847h3.393v-11.814c0-3.425-2.726-5.633-6.922-5.633-3.892 0-6.77 2.238-6.876 5.313h3.302c0.273-1.461 1.621-2.42 3.468-2.42 2.242 0 3.499 1.050 3.499 2.984v1.309l-4.574 0.274c-4.256 0.259-6.558 2.009-6.558 5.054 0 3.075 2.378 5.115 5.786 5.115zM51.957 22.912c-1.954 0-3.196-0.944-3.196-2.39 0-1.492 1.197-2.36 3.484-2.497l4.074-0.259v1.34c0 2.223-1.878 3.806-4.362 3.806zM64.376 32c3.575 0 5.256-1.37 6.725-5.526l6.437-18.146h-3.726l-4.317 14.021h-0.076l-4.317-14.021h-3.832l6.21 17.279-0.333 1.050c-0.56 1.781-1.469 2.466-3.090 2.466-0.288 0-0.848-0.030-1.075-0.061v2.847c0.212 0.061 1.121 0.091 1.393 0.091z"></path>
</symbol>
<symbol id="icon-mastercard" viewBox="0 0 51 32">
<path fill="#fff" style="fill: var(--color1, #fff)" d="M0 15.989c0 8.844 7.057 16.011 15.739 16.011 3.091 0 6.125-0.948 8.693-2.671-8.284-6.855-8.227-19.792 0-26.647-2.568-1.734-5.602-2.671-8.693-2.671-8.682-0.012-15.739 7.168-15.739 15.977zM25.455 28.566c8.011-6.358 7.977-18.751 0-25.144-7.977 6.393-8.011 18.798 0 25.144zM50.909 15.989c0-8.809-7.057-15.989-15.738-15.989-3.091 0-6.125 0.948-8.693 2.671 8.193 6.855 8.318 19.826 0 26.647 2.568 1.734 5.625 2.671 8.693 2.671 8.682 0.012 15.738-7.156 15.738-16z"></path>
</symbol>
</defs>
</svg>










