<svg aria-hidden="true" style="position: absolute; width: 0; height: 0; overflow: hidden;" version="1.1" xmlns="http://www.w3.org/2000/svg" xmlns:xlink="http://www.w3.org/1999/xlink">
<defs>
<symbol id="icon-free-shipping" viewBox="0 0 32 32">
<path d="M12.678 23.773c1.077-1.004 1.34-2.474 0.586-3.281s-2.237-0.648-3.314 0.356c-1.077 1.004-1.34 2.474-0.586 3.281s2.237 0.648 3.314-0.356z"></path>
<path d="M26.012 23.773c1.077-1.004 1.34-2.474 0.586-3.281s-2.237-0.648-3.314 0.356c-1.077 1.004-1.34 2.474-0.586 3.281s2.237 0.648 3.314-0.356z"></path>
<path d="M2.667 13.333c0-0.736-0.597-1.333-1.333-1.333s-1.333 0.597-1.333 1.333c0 0.736 0.597 1.333 1.333 1.333s1.333-0.597 1.333-1.333z"></path>
<path d="M21.649 21.332c0.379-1.809 2.149-3.247 4.050-3.247 1.831 0 3.151 1.333 3.115 3.048 1.981 0.050 2.532-2.469 2.532-2.469 0.167-0.704 0.416-2.077 0.624-3.425 0.068-0.416 0.016-0.842-0.152-1.231-0.518-1.167-1.143-2.287-1.869-3.346-0.687-0.99-1.839-1.576-3.154-1.597-0.784-0.012-1.554-0.019-2.135-0.019l-0.005-0.005c-0.075-1.211-0.989-2.138-2.272-2.249-0.835-0.072-4.142-0.124-5.729-0.124-0.631 0-1.535 0.008-2.451 0.023v-0.004h-11.013c-0.14-0-0.279 0.027-0.408 0.078s-0.247 0.128-0.346 0.223c-0.099 0.096-0.178 0.209-0.231 0.334s-0.081 0.259-0.081 0.394v0.005c0 0.272 0.112 0.533 0.311 0.725s0.469 0.3 0.751 0.3h2.218c0.267 0.019 0.517 0.135 0.699 0.324s0.284 0.438 0.284 0.697v0.005c0 0.135-0.027 0.27-0.080 0.395s-0.132 0.239-0.231 0.335c-0.099 0.096-0.217 0.172-0.346 0.224s-0.268 0.079-0.408 0.079h-1.138c-0.283 0-0.554 0.108-0.754 0.302s-0.312 0.455-0.312 0.728c-0 0.135 0.027 0.269 0.081 0.394s0.132 0.239 0.231 0.334c0.099 0.096 0.216 0.172 0.346 0.223s0.268 0.078 0.408 0.078h1.138c0.283 0 0.554 0.109 0.754 0.302s0.312 0.455 0.312 0.728c0 0.273-0.112 0.535-0.312 0.728s-0.471 0.302-0.754 0.302h-4.256c-0.283 0-0.554 0.108-0.754 0.301s-0.312 0.455-0.313 0.728c0 0.273 0.112 0.535 0.312 0.728s0.471 0.302 0.754 0.302h4.256c0.283 0 0.554 0.109 0.754 0.302s0.312 0.455 0.312 0.728c-0 0.273-0.113 0.535-0.313 0.728s-0.471 0.301-0.754 0.301h-1.316c-0.283 0-0.554 0.108-0.754 0.302s-0.312 0.455-0.312 0.728c0 0.273 0.112 0.535 0.312 0.728s0.471 0.302 0.754 0.302l4.2-0.003 0.349-0.84c0.715-1.274 2.137-2.176 3.643-2.176 1.903 0 3.254 1.439 3.105 3.249h6.345zM11.071 11.285h-1.431c-0.001 0-0.003 0.001-0.004 0.001s-0.002 0.002-0.002 0.003l-0.132 0.905c-0 0.001-0 0.002-0 0.002s0.001 0.001 0.001 0.002 0.001 0.001 0.002 0.001 0.001 0 0.002 0h1.065c0.052-0.001 0.104 0.008 0.152 0.029s0.090 0.051 0.124 0.089c0.034 0.038 0.059 0.083 0.073 0.132s0.016 0.1 0.007 0.15c-0.018 0.109-0.075 0.209-0.162 0.282s-0.196 0.115-0.311 0.118h-1.066c-0.001-0-0.003 0-0.004 0.001s-0.002 0.002-0.002 0.003l-0.191 1.314c-0.018 0.109-0.075 0.209-0.162 0.282s-0.196 0.115-0.31 0.118c-0.052 0.001-0.104-0.008-0.152-0.029s-0.090-0.051-0.124-0.089c-0.034-0.038-0.059-0.084-0.072-0.132s-0.016-0.1-0.006-0.149l0.496-3.408c0.020-0.115 0.080-0.221 0.171-0.298s0.207-0.121 0.328-0.125h1.825c0.052-0.001 0.104 0.008 0.152 0.029s0.090 0.051 0.124 0.089c0.034 0.038 0.059 0.084 0.072 0.132s0.016 0.1 0.006 0.149c-0.018 0.109-0.076 0.208-0.161 0.28s-0.195 0.114-0.309 0.117zM14.896 10.76c0.149 0.127 0.253 0.296 0.3 0.482 0.052 0.211 0.060 0.431 0.025 0.645-0.043 0.334-0.185 0.649-0.408 0.908-0.136 0.155-0.309 0.277-0.504 0.354-0.001 0.001-0.001 0.002-0.001 0.003s0 0.002 0.001 0.003l0.355 0.988c0.096 0.265-0.15 0.575-0.455 0.575h-0.020c-0.074 0.002-0.147-0.019-0.208-0.059s-0.107-0.099-0.132-0.166l-0.429-1.206c-0.001-0.001-0.001-0.002-0.002-0.002s-0.002-0.001-0.003-0.001h-0.912c-0.001 0-0.002 0.001-0.003 0.001s-0.002 0.002-0.002 0.003l-0.15 1.030c-0.018 0.109-0.075 0.209-0.162 0.282s-0.196 0.115-0.311 0.118c-0.052 0.001-0.104-0.008-0.152-0.029s-0.090-0.051-0.124-0.089-0.059-0.084-0.072-0.132c-0.014-0.049-0.016-0.1-0.006-0.15l0.496-3.408c0.020-0.115 0.080-0.221 0.171-0.298s0.207-0.121 0.328-0.125h1.411c0 0 0.619-0.019 0.97 0.272zM18.78 10.86c-0.017 0.102-0.070 0.195-0.151 0.263s-0.183 0.107-0.29 0.11h-1.642c-0.001 0-0.002 0.001-0.003 0.001s-0.002 0.002-0.002 0.003l-0.13 0.895c-0 0.001-0 0.002-0 0.002s0 0.001 0.001 0.002 0.001 0.001 0.002 0.001 0.001 0 0.002 0h1.275c0.049-0.001 0.097 0.008 0.142 0.027s0.084 0.047 0.116 0.083c0.032 0.036 0.055 0.078 0.068 0.124s0.015 0.093 0.006 0.14c-0.017 0.102-0.070 0.195-0.151 0.263s-0.183 0.107-0.29 0.11h-1.276c-0.001 0-0.002 0.001-0.003 0.001s-0.002 0.002-0.002 0.003l-0.157 1.077c-0 0.002 0.001 0.003 0.002 0.004s0.002 0.002 0.004 0.002h1.64c0.049-0.001 0.097 0.008 0.142 0.027s0.084 0.048 0.116 0.083c0.032 0.036 0.055 0.078 0.068 0.124s0.015 0.093 0.006 0.14c-0.017 0.102-0.070 0.195-0.151 0.263s-0.183 0.107-0.29 0.11h-2.036c-0.055 0.001-0.109-0.010-0.159-0.032s-0.095-0.054-0.13-0.094c-0.036-0.040-0.062-0.088-0.077-0.139s-0.018-0.105-0.008-0.157l0.493-3.384c0.020-0.115 0.080-0.221 0.171-0.298s0.207-0.121 0.328-0.125h2.035c0.048-0.001 0.096 0.008 0.141 0.027s0.084 0.047 0.115 0.082c0.032 0.035 0.055 0.077 0.068 0.122s0.016 0.092 0.007 0.138zM22.19 10.86c-0.017 0.102-0.070 0.195-0.151 0.263s-0.183 0.107-0.29 0.11h-1.642c-0.001 0-0.002 0.001-0.003 0.001s-0.002 0.002-0.002 0.003l-0.13 0.895c-0 0.001-0 0.002-0 0.002s0 0.001 0.001 0.002 0.001 0.001 0.002 0.001 0.001 0 0.002 0h1.275c0.049-0.001 0.097 0.008 0.142 0.027s0.084 0.047 0.116 0.083c0.032 0.036 0.055 0.078 0.068 0.124s0.015 0.093 0.006 0.14c-0.017 0.102-0.070 0.195-0.151 0.263s-0.183 0.107-0.29 0.11h-1.276c-0.001 0-0.003 0.001-0.004 0.001s-0.002 0.002-0.002 0.003l-0.157 1.077c0 0.002 0.001 0.003 0.002 0.004s0.002 0.002 0.004 0.002h1.64c0.049-0.001 0.097 0.008 0.142 0.027s0.084 0.048 0.116 0.083c0.032 0.036 0.055 0.078 0.068 0.124s0.015 0.093 0.006 0.14c-0.017 0.102-0.070 0.195-0.151 0.263s-0.183 0.107-0.29 0.11h-2.036c-0.055 0.001-0.109-0.010-0.159-0.032s-0.095-0.054-0.13-0.094-0.062-0.088-0.077-0.139c-0.015-0.051-0.018-0.105-0.008-0.157l0.493-3.384c0.020-0.115 0.080-0.221 0.171-0.298s0.207-0.121 0.328-0.125h2.035c0.048-0.001 0.096 0.008 0.141 0.027s0.084 0.047 0.115 0.082c0.032 0.035 0.055 0.077 0.068 0.122s0.016 0.092 0.007 0.138zM24.562 10.473c0.558 0 1.279 0.007 2.004 0.019 0.878 0.014 1.646 0.403 2.107 1.068 0.492 0.717 0.935 1.464 1.324 2.237 0.206 0.405-0.173 0.933-0.669 0.933h-5.323l0.558-4.257z"></path>
<path d="M12.734 13.333h-0.734l0.139-1.333h0.734c0 0 0.539-0.046 0.45 0.666 0.002 0-0.059 0.666-0.589 0.666z"></path>
</symbol>
<symbol id="icon-psychiatry" viewBox="0 0 32 32">
<path d="M21.778 22.125c0 0.732-0.511 1.39-1.243 1.39-0.721 0-1.411-0.135-2.042-0.38-1.307 1.573-3.311 2.58-5.556 2.58-0.014 0-0.028-0-0.041-0l-4.055 2.959c-0.109 0.079-0.257 0.083-0.37 0.010s-0.166-0.208-0.131-0.335l1.358-5.013c-2.604 0.758-4.607-0.791-4.716-3.072-2.518-0.254-3.648-3.446-3.648-5.953 0.007-0.711 0.005-0.832 0-1.571 0-2.506 1.963-4.569 4.481-4.823 0.175-3.662 3.299-6.582 7.122-6.582 2.245 0 4.249 1.007 5.556 2.58 0.631-0.245 1.321-0.38 2.042-0.38 3.033 0 5.496 2.385 5.496 5.324 0 0.208-0.012 0.412-0.036 0.614 2.178 0.148 3.848 0.809 3.848 2.979 0 0.936-0.758 1.694-1.694 1.694h-4.305c-1.136 0-2.067 0.901-2.067 2.003v5.979zM14.559 9.445c-0.732-0.833-1.604-1.242-2.955-1.242-2.152 0-3.849 1.561-3.849 3.421 0 1.159 0.494 2.329 1.336 3.488 1.12 1.542 2.87 3.089 4.653 4.631 0.466 0.404 1.164 0.404 1.631-0.001 1.782-1.541 3.532-3.088 4.652-4.63 0.842-1.159 1.336-2.328 1.336-3.488 0-1.859-1.697-3.421-3.849-3.421-1.351 0-2.223 0.409-2.955 1.242zM14.835 10.539c0.657-0.98 1.384-1.47 2.678-1.47 1.631 0 2.955 1.145 2.955 2.554 0 2.491-2.81 4.982-5.69 7.472-0.126 0.109-0.313 0.109-0.439 0-2.88-2.49-5.69-4.981-5.69-7.472 0-1.41 1.323-2.554 2.955-2.554 1.294 0 2.021 0.49 2.679 1.47 0.062 0.093 0.161 0.145 0.276 0.145s0.214-0.052 0.276-0.145zM32 29.53c0 0.625-0.528 1.136-1.173 1.136h-6.982c-0.644 0-1.172-0.511-1.172-1.136v-13.384c0-0.625 0.528-1.136 1.172-1.136h6.982c0.645 0 1.173 0.511 1.173 1.136v13.384zM26.699 29.523h1.275c0.247 0 0.447-0.194 0.447-0.433s-0.2-0.433-0.447-0.433h-1.275c-0.247 0-0.447 0.194-0.447 0.433s0.2 0.433 0.447 0.433z"></path>
</symbol>
<symbol id="icon-gift-card" viewBox="0 0 32 32">
<path d="M29.677 6.667h-9.677c1.516 1.191 2.864 2.805 4.583 3.276 0.743-0.143 1.65-1.066 2.498-0.554s0.546 1.745 0.778 2.489c0.529 0.566 1.742 0.917 1.742 1.936-0.003 0.171-0.039 0.339-0.106 0.496s-0.163 0.298-0.284 0.416l2.788 2.609v-8.284c0-0.632-0.245-1.238-0.68-1.685s-1.027-0.698-1.643-0.698z"></path>
<path d="M28.256 15.726c0.013 0.471-0.075 0.938-0.256 1.358l4 4.249v-3.16c-0.676-0.706-2.627-2.765-3.329-3.507-0.425 0.263-0.379 0.515-0.415 1.059z"></path>
<path d="M24.703 17.172c-0.726 0.142-1.629 1.016-2.451 0.528s-0.537-1.669-0.771-2.372c-0.167-0.169-0.36-0.31-0.571-0.42-0.971-0.499-1.651-1.566-0.606-2.418l-6.971-5.823h-11.046c-0.606 0-1.188 0.239-1.616 0.665s-0.669 1.003-0.669 1.605v15.46c0 0.602 0.241 1.179 0.669 1.605s1.010 0.665 1.616 0.665h27.428c0.606 0 1.188-0.239 1.616-0.665s0.669-1.003 0.669-1.605v-1.487l-5.623-5.108c-0.56-0.057-1.189-0.568-1.674-0.63zM12.897 19.538c-0.743 1.975-3.469 3.167-4 3.292-0.571-0.125-3.286-1.317-4-3.292-0.571-1.334 0.811-3.093 1.931-3.121 0.75-0.053 1.493 0.171 2.086 0.63 0.594-0.457 1.336-0.682 2.086-0.63 1.080 0.028 2.446 1.793 1.897 3.121z"></path>
<path d="M20.91 13.374c-0.151 0.124-0.144 0.343 0.014 0.458 0.446 0.324 1.135 0.636 1.378 1.083 0.239 0.44 0.204 1.131 0.294 1.664 0.035 0.206 0.248 0.305 0.437 0.218 0.501-0.23 1.129-0.591 1.636-0.572 0.51 0.019 1.123 0.387 1.66 0.583 0.201 0.073 0.4-0.062 0.416-0.275 0.039-0.528 0.024-1.213 0.298-1.618 0.254-0.347 0.592-0.63 0.983-0.827 0.135-0.071 0.263-0.154 0.381-0.248 0.159-0.126 0.161-0.358-0.003-0.479-0.446-0.33-1.12-0.618-1.362-1.072-0.238-0.448-0.208-1.132-0.296-1.662-0.034-0.207-0.247-0.308-0.437-0.221-0.504 0.23-1.123 0.592-1.64 0.573-0.53-0.019-1.106-0.355-1.658-0.57-0.195-0.076-0.4 0.037-0.421 0.245-0.052 0.521-0.005 1.239-0.288 1.635-0.294 0.411-0.963 0.735-1.391 1.086z"></path>
<path d="M21.008 11.065c-0.015-0.487 0.098-0.969 0.325-1.394-0.812-0.712-2.625-2.311-3.426-3.005h-3.241l6.051 5.333c0.319-0.206 0.252-0.512 0.291-0.935z"></path>
<path d="M10.564 17.679c-0.519 0.017-1.013 0.243-1.386 0.632-0.095 0.098-0.222 0.153-0.354 0.153s-0.259-0.055-0.354-0.153c-0.373-0.393-0.87-0.619-1.391-0.632-0.312 0.091-0.579 0.31-0.745 0.61s-0.217 0.657-0.143 0.997c0.313 1.042 1.853 2 2.634 2.393 0.775-0.393 2.321-1.352 2.634-2.393 0.074-0.341 0.022-0.699-0.145-0.999s-0.435-0.518-0.748-0.608z"></path>
</symbol>
<symbol id="icon-return-box" viewBox="0 0 32 32">
<path d="M16.106 32c-3.774 0-7.401-1.454-10.244-3.939v3.008c0 0.514-0.417 0.931-0.931 0.931s-0.931-0.417-0.931-0.931v-5.322c0-0.86 1.070-1.256 1.63-0.603 2.652 3.097 6.471 4.873 10.477 4.873 7.703 0 14.031-6.455 14.031-14.391v-0.028c0-0.514 0.417-0.931 0.931-0.931s0.931 0.417 0.931 0.931v0.028c0 8.993-7.164 16.374-15.894 16.374z"></path>
<path d="M1.863 16.402c0 0.514-0.417 0.931-0.931 0.931s-0.931-0.417-0.931-0.931v-0.028c0-8.994 7.164-16.374 15.894-16.374 3.774 0 7.401 1.454 10.244 3.939v-3.008c0-0.514 0.417-0.931 0.931-0.931s0.931 0.417 0.931 0.931v5.322c0 0.86-1.070 1.256-1.63 0.603-2.652-3.097-6.471-4.873-10.477-4.873-7.703 0-14.031 6.455-14.031 14.391v0.028z"></path>
<path d="M16.439 12.78c0.142 0.511 0.894 0.408 0.894-0.122v-3.698c0-0.53-0.43-0.96-0.96-0.96h-0.747c-0.53 0-0.96 0.43-0.96 0.96v3.698c0 0.53 0.753 0.633 0.894 0.122 0.124-0.445 0.754-0.445 0.878 0z"></path>
<path d="M20 8c-0.736 0-1.333 0.597-1.333 1.333v4.005c0 1.020-1.118 1.651-2.007 1.151-0.406-0.228-0.914-0.228-1.32 0-0.889 0.5-2.007-0.131-2.007-1.151v-4.005c0-0.736-0.597-1.333-1.333-1.333h-2.667c-0.736 0-1.333 0.597-1.333 1.333v13.333c0 0.736 0.597 1.333 1.333 1.333h13.333c0.736 0 1.333-0.597 1.333-1.333v-13.333c0-0.736-0.597-1.333-1.333-1.333h-2.667zM20.444 18.8c0 0.552-0.448 1-1 1h-1.556c-0.552 0-1-0.448-1-1s0.448-1 1-1h1.556c0.552 0 1 0.448 1 1z"></path>
</symbol>

</defs>
</svg>
